 <svg version="1.1" xmlns="http://www.w3.org/2000/svg" xmlns:xlink="http://www.w3.org/1999/xlink" viewBox="0 0 1280 1280" enable-background="new 0 0 1280 1280" xml:space="preserve">
<g transform="translate(0,1280) scale(0.1,-0.1)"
fill="currentColor" stroke="none">
<path d="M7479 11630 c-218 -34 -394 -184 -470 -400 -22 -62 -24 -81 -27 -412
l-4 -347 -1256 -3 -1257 -3 -95 -27 c-209 -58 -393 -163 -532 -305 -109 -109
-161 -181 -223 -308 -63 -127 -98 -243 -114 -370 -8 -64 -11 -1115 -11 -3645
0 -3896 -4 -3645 59 -3841 58 -179 148 -326 281 -459 198 -198 443 -314 725
-341 74 -7 702 -9 1925 -6 1623 3 1822 5 1886 19 435 99 761 392 889 798 58
186 55 -39 55 3830 0 2530 -3 3581 -11 3645 -6 50 -22 128 -35 175 -30 104
-118 284 -179 365 -110 147 -283 290 -437 364 -134 63 -323 111 -443 111 l-53
0 -5 338 c-4 367 -8 396 -66 510 -113 219 -362 349 -602 312z m669 -3482 l-3
-1163 -1745 0 -1745 0 -3 1163 -2 1162 1750 0 1750 0 -2 -1162z m-2330 -2910
l-3 -583 -580 0 -580 0 -3 570 c-1 314 0 576 3 583 3 9 130 12 585 12 l580 0
-2 -582z m2327 -3 l0 -580 -580 0 -580 0 -3 583 -2 582 582 -2 583 -3 0 -580z
m-2325 -2325 l0 -580 -585 0 -585 0 0 580 0 580 585 0 585 0 0 -580z m2330 0
l0 -580 -585 0 -585 0 0 580 0 580 585 0 585 0 0 -580z"/>
</g>
</svg>
