<?xml version="1.0"?>
<svg xmlns="http://www.w3.org/2000/svg" viewBox="0 0 16 16">
<style type="text/css">path{fill:#444;}</style>
<path style="line-height:normal;text-indent:0;text-align:start;text-decoration-line:none;text-decoration-style:solid;text-decoration-color:#000;text-transform:none;block-progression:tb;isolation:auto;mix-blend-mode:normal" d="M 3.3710938 1.0429688 L 3.0175781 1.3964844 L 1.7949219 2.6191406 C 0.9345076 3.4795549 0.74553719 4.8230807 1.3632812 5.8789062 C 2.0522825 7.0567462 2.6150214 7.9314277 4.9667969 10.283203 C 7.3185724 12.634979 7.962248 12.958829 9.1210938 13.636719 C 10.177799 14.255488 11.52078 14.065157 12.380859 13.205078 L 13.957031 11.628906 L 10.912109 8.5839844 L 9.671875 9.8242188 C 9.5235226 9.7585909 9.3021884 9.6397866 9.0429688 9.4746094 C 8.5100408 9.1350228 7.8303197 8.6154759 7.2324219 8.0175781 C 6.6345241 7.4196803 6.0475826 6.6737159 5.6425781 6.0722656 C 5.4400759 5.7715405 5.2817817 5.5041938 5.1933594 5.3261719 C 5.1904494 5.3203219 5.1922031 5.3201321 5.1894531 5.3144531 L 6.4160156 4.0878906 L 3.3710938 1.0429688 z M 3.3710938 2.4570312 L 5.0019531 4.0878906 L 4.2851562 4.8046875 C 4.1358533 4.9539906 4.122535 5.1153679 4.1230469 5.2089844 C 4.1235588 5.3026004 4.139434 5.3640359 4.15625 5.4238281 C 4.189882 5.5434125 4.238586 5.6501985 4.2988281 5.7714844 C 4.419312 6.0140562 4.5928772 6.3047095 4.8125 6.6308594 C 5.2517455 7.2831591 5.8652884 8.0645072 6.5253906 8.7246094 C 7.1854928 9.3847116 7.9100372 9.9386963 8.5058594 10.318359 C 8.8037705 10.508191 9.0652308 10.654061 9.2910156 10.751953 C 9.403908 10.800903 9.5058406 10.839573 9.625 10.863281 C 9.68458 10.875131 9.7488465 10.884673 9.8398438 10.876953 C 9.9308407 10.869253 10.06977 10.840383 10.195312 10.714844 L 10.912109 9.9980469 L 12.542969 11.628906 L 11.673828 12.498047 C 11.127907 13.043968 10.288248 13.160667 9.6269531 12.773438 C 8.443799 12.081329 7.9960526 11.898396 5.6738281 9.5761719 C 3.3516036 7.2539474 2.9075613 6.5372069 2.2265625 5.3730469 C 1.8403066 4.7128725 1.9563674 3.8717576 2.5019531 3.3261719 L 3.3710938 2.4570312 z" font-weight="400" font-family="sans-serif" white-space="normal" overflow="visible"/>
</svg>
