<?xml version="1.0" encoding="utf-8"?><!DOCTYPE svg PUBLIC "-//W3C//DTD SVG 1.1//EN" "http://www.w3.org/Graphics/SVG/1.1/DTD/svg11.dtd">
<svg version="1.1" xmlns="http://www.w3.org/2000/svg" xmlns:xlink="http://www.w3.org/1999/xlink" x="0px" y="0px" viewBox="0 0 1000 1000" enable-background="new 0 0 1000 1000" xml:space="preserve">
<g><path d="M264.6,734.2l-61.1-13.7l420.4-420l69.8,69.9L273.4,790.3L264.6,734.2L264.6,734.2z M739.8,415.6l-418.4,418L152,883.3l-35.1-35.1l51.9-176.8l413.7-413.3l-50.1-50.1L112.6,624.2c-5.8,4.7-10.7,10.5-13,18.2L11.5,942.5c-3.9,13.1-0.2,27.2,9.4,36.9c7.1,7.1,16.6,10.9,26.3,10.9c3.5,0,7-0.5,10.5-1.5l300.1-88.1c7.1-2.1,12.7-6.5,17.2-11.8l420.8-417.1L739.8,415.6L739.8,415.6z M570.4,166.2L834,429.8l60.3-56.5L630.7,109.7L570.4,166.2L570.4,166.2z M963.6,162.4L837.3,36.1c-34.9-34.9-91.1-35.2-125.6-0.7l-38.8,39.2l252.6,252.6l38.8-39.2C998.8,253.6,998.5,197.3,963.6,162.4L963.6,162.4z"/></g>
</svg>