<svg xmlns="http://www.w3.org/2000/svg" xmlns:xlink="http://www.w3.org/1999/xlink" version="1.1" viewBox="0 0 1000 1000" xml:space="preserve" style="display:none">

<symbol id='pfy-iconset-external'>
<g transform="translate(0,250) scale(0.8,0.8)" fill="currentColor" stroke="none">
<path d="M815,537.2c-19.3,0-35,15.7-35,35V850c0,19.3-15.7,35-35,35H115c-19.3,0-35-15.7-35-35V220c0-19.3,15.7-35,35-35h420v0c0.4,0,0.7,0,1.1,0c19.3,0,35-15.7,35-35s-15.7-35-35-35c-0.4,0-0.7,0-1.1,0v0H80c-38.7,0-70,31.3-70,70v700c0,38.7,31.3,70,70,70h700c38.7,0,70-31.3,70-70V572.2C850,552.9,834.3,537.2,815,537.2z"></path><path d="M955,45H675c-19.3,0-23.9,11.1-10.3,24.8l113.1,113.1L415.7,545c-20.5,20.5-20.5,53.7,0,74.2c20.5,20.5,53.7,20.5,74.2,0l362.2-362.2l113.1,113.1c13.7,13.7,24.8,9.1,24.8-10.3V80C990,60.7,974.3,45,955,45z"></path>
</g>
</symbol>

<symbol id='pfy-iconset-login' fill="currentColor">
<path d="M500,990C229.4,990,10,770.6,10,500S229.4,10,500,10s490,219.4,490,490S770.6,990,500,990z M769,848.9c-45.2-104.1-148.2-177.4-269-177.4s-223.9,73.1-269.1,177.3C305.3,906.4,398.6,941,500,941C601.4,941,694.5,906.5,769,848.9L769,848.9z M647,451c0-81.2-65.8-147-147-147c-81.2,0-147,65.8-147,147c0,81.2,65.8,147,147,147C581.2,598,647,532.2,647,451z M500,59C256.5,59,59,256.5,59,500c0,123.8,51.1,235.5,133.3,315.6c44.8-91.8,129-160.8,231-184.2C353.2,601.6,304,532,304,451c0-108.2,87.8-196,196-196c108.2,0,196,87.8,196,196c0,81-49.2,150.6-119.3,180.4c102,23.3,186.1,92.4,231,184.2C889.8,735.6,941,623.8,941,500C941,256.5,743.5,59,500,59L500,59z"></path>
</symbol>

<symbol id='pfy-iconset-logout'>
<g transform="translate(0,150) scale(1.8)" fill="currentColor" stroke="none">
<path d="M329.1,329.2c-10.1,0-18.3,8.2-18.3,18.3v45.7c0,3.8-0.8,7.4-2.1,10.7c-2.1,4.9-5.6,9.1-10,12.1c-2.2,1.5-4.6,2.6-7.2,3.4 c-2.6,0.8-5.3,1.2-8.2,1.2H64c-3.8,0-7.4-0.8-10.7-2.1c-4.9-2.1-9.1-5.6-12.1-10c-1.5-2.2-2.6-4.6-3.4-7.2 c-0.8-2.6-1.2-5.3-1.2-8.2V118.9c0-3.8,0.8-7.4,2.1-10.7c2.1-4.9,5.6-9.1,10-12.1c2.2-1.5,4.6-2.6,7.2-3.4c2.6-0.8,5.3-1.2,8.2-1.2 h219.4c3.8,0,7.4,0.8,10.7,2.1c4.9,2.1,9.1,5.6,12.1,10c1.5,2.2,2.6,4.6,3.4,7.2c0.8,2.6,1.2,5.3,1.2,8.2v45.7 c0,10.1,8.2,18.3,18.3,18.3c10-0.1,18.2-8.3,18.2-18.4v-45.7c0-8.8-1.8-17.3-5-24.9c-4.9-11.5-13-21.2-23.2-28.1 c-5.1-3.4-10.7-6.2-16.8-8.1c-6-1.9-12.4-2.9-19-2.9H64c-8.8,0-17.3,1.8-24.9,5c-11.5,4.9-21.2,13-28.1,23.2 c-3.4,5.1-6.2,10.7-8.1,16.8c-1.9,6-2.9,12.4-2.9,19v274.3c0,8.8,1.8,17.3,5,24.9c4.9,11.5,13,21.2,23.2,28.1 c5.1,3.4,10.7,6.2,16.8,8.1c6,1.9,12.4,2.9,19,2.9h219.4c8.8,0,17.3-1.8,24.9-5c11.5-4.9,21.2-13,28.1-23.2 c3.4-5.1,6.2-10.7,8.1-16.8c1.9-6,2.9-12.4,2.9-19v-45.7C347.4,337.4,339.2,329.2,329.1,329.2z"></path>
<path d="M510.6,248.9c-0.1-0.3-0.3-0.6-0.4-0.9c-0.1-0.2-0.2-0.4-0.3-0.5c-1-2-2.4-3.7-4.1-5.2l-90.5-90.5 c-7.1-7.1-18.7-7.1-25.9,0c-7.2,7-7.2,18.6,0,25.7l60.2,60.2H181.7c-10.1,0-18.3,8.2-18.3,18.3c0,10.1,8.2,18.3,18.3,18.3h267.9 l-60.2,60.2c-7.1,7.1-7.1,18.7,0,25.9c7.1,7.1,18.7,7.1,25.9,0l91.4-91.4c3.4-3.4,5.4-8.1,5.4-12.9 C512.1,253.6,511.6,251.2,510.6,248.9z"></path>
</g>
</symbol>

<symbol id='pfy-iconset-mail'>
<g transform="translate(0,300) scale(1.4,1.7)" fill="currentColor" stroke="none">
<path d="M444.556,85.218H48.942C21.954,85.218,0,107.171,0,134.16v225.177c0,26.988,21.954,48.942,48.942,48.942h395.613 c26.988,0,48.941-21.954,48.941-48.942V134.16C493.497,107.171,471.544,85.218,444.556,85.218z M460.87,134.16v225.177 c0,2.574-0.725,4.924-1.793,7.09L343.74,251.081l117.097-117.097C460.837,134.049,460.87,134.096,460.87,134.16z M32.628,359.336 V134.16c0-0.064,0.033-0.11,0.033-0.175l117.097,117.097L34.413,366.426C33.353,364.26,32.628,361.911,32.628,359.336z  M251.784,296.902c-2.692,2.691-7.378,2.691-10.07,0L62.667,117.846h368.172L251.784,296.902z M172.827,274.152l45.818,45.819 c7.512,7.511,17.493,11.645,28.104,11.645c10.61,0,20.592-4.134,28.104-11.645l45.82-45.819l101.49,101.499H71.327L172.827,274.152z "></path>
</g>
</symbol>

<symbol id='pfy-iconset-menu' fill="currentColor">
<g  transform="translate(0,-90) scale(32)">
<path d="M4,10h24c1.104,0,2-0.896,2-2s-0.896-2-2-2H4C2.896,6,2,6.896,2,8S2.896,10,4,10z M28,14H4c-1.104,0-2,0.896-2,2  s0.896,2,2,2h24c1.104,0,2-0.896,2-2S29.104,14,28,14z M28,22H4c-1.104,0-2,0.896-2,2s0.896,2,2,2h24c1.104,0,2-0.896,2-2  S29.104,22,28,22z"></path>
</g>
</symbol>

<symbol id='pfy-iconset-user' fill="currentColor">
<path d="M500,990C229.4,990,10,770.6,10,500S229.4,10,500,10s490,219.4,490,490S770.6,990,500,990z M769,848.9c-45.2-104.1-148.2-177.4-269-177.4s-223.9,73.1-269.1,177.3C305.3,906.4,398.6,941,500,941C601.4,941,694.5,906.5,769,848.9L769,848.9z M647,451c0-81.2-65.8-147-147-147c-81.2,0-147,65.8-147,147c0,81.2,65.8,147,147,147C581.2,598,647,532.2,647,451z M500,59C256.5,59,59,256.5,59,500c0,123.8,51.1,235.5,133.3,315.6c44.8-91.8,129-160.8,231-184.2C353.2,601.6,304,532,304,451c0-108.2,87.8-196,196-196c108.2,0,196,87.8,196,196c0,81-49.2,150.6-119.3,180.4c102,23.3,186.1,92.4,231,184.2C889.8,735.6,941,623.8,941,500C941,256.5,743.5,59,500,59L500,59z"></path>
</symbol>

<symbol id='pfy-iconset-pdf'>
<g transform="translate(50,1000) scale(0.1,-0.1)" fill="currentColor" stroke="none">
<path d="M315 7786 c-158 -50 -272 -184 -295 -348 -13 -84 -13 -6992 0 -7076 20 -141 112 -265 240 -326 l65 -31 3035 0 3035 0 65 31 c128 61 220 185 240 326 14 93 13 5023 -1 5146 -11 107 -66 287 -120 393 -71 143 -118 194 -871 944 -670 668 -751 745 -823 787 -90 52 -215 106 -326 140 l-74 23 -2065 2 c-1651 1 -2073 -1 -2105 -11z m3595 -1443 c0 -549 4 -925 10 -968 6 -38 21 -93 35 -122 30 -66 109 -151 173 -186 107 -58 83 -57 1089 -57 l923 0 0 -2225 0 -2225 -2780 0 -2780 0 0 3340 0 3340 1665 0 1665 0 0 -897z m665 820 c39 -19 205 -179 744 -716 381 -381 708 -714 725 -742 18 -27 40 -69 49 -92 l17 -43 -815 0 -815 0 0 816 0 815 23 -7 c12 -3 45 -18 72 -31z"></path>
<path d="M2984 5556 c-95 -41 -144 -214 -144 -502 0 -250 34 -505 105 -777 l35 -138 -69 -207 c-117 -351 -211 -572 -420 -992 -143 -286 -209 -410 -344 -643 l-79 -138 -27 25 c-15 14 -35 26 -46 26 -20 0 -107 -46 -230 -123 -345 -215 -618 -537 -633 -746 -7 -98 7 -118 120 -177 82 -42 101 -48 158 -48 41 -1 83 6 115 18 169 64 372 262 603 585 89 125 289 438 325 507 14 28 28 34 184 82 427 131 984 246 1428 293 l110 12 80 -40 c190 -95 487 -199 693 -243 58 -13 155 -24 240 -27 242 -10 314 23 371 170 34 86 39 148 17 201 -18 43 -71 103 -118 132 -59 38 -201 81 -328 100 -143 22 -520 24 -722 5 l-138 -13 -92 57 c-370 229 -552 432 -744 830 -40 83 -91 201 -115 264 l-42 115 16 140 c23 192 36 389 42 657 3 124 10 241 15 260 15 51 12 171 -5 220 -19 52 -58 96 -102 115 -43 18 -217 18 -259 0z m205 -309 c6 -36 7 -66 2 -76 -5 -9 -22 -95 -37 -191 -32 -200 -37 -196 -49 40 -7 134 3 256 25 316 l11 28 19 -29 c10 -17 23 -56 29 -88z m156 -1902 c121 -183 277 -357 425 -474 47 -37 49 -41 28 -45 -13 -3 -70 -15 -128 -26 -317 -64 -745 -190 -1018 -299 -29 -12 -51 -18 -49 -14 242 431 405 786 543 1183 3 8 30 -33 66 -100 33 -63 93 -164 133 -225z m1701 -705 c196 -16 316 -49 355 -96 13 -16 8 -17 -91 -11 -140 8 -357 56 -465 103 l-30 13 51 1 c28 0 109 -5 180 -10z m-3080 -647 c-41 -80 -250 -360 -350 -470 -53 -58 -181 -163 -199 -163 -15 0 54 117 128 215 96 128 215 257 335 361 52 46 96 84 98 84 1 0 -4 -12 -12 -27z"></path>
</g>
</symbol>

<symbol id='pfy-iconset-tel'>
  <g transform="translate(0,980) scale(0.08,-0.08)" fill="currentColor" stroke="none">
    <path d="M1760 9779 c-246 -64 -542 -285 -853 -639 -454 -517 -790 -1149 -882 -1659 -52 -287 -17 -606 110 -986 303 -909 1083 -2108 2119 -3255 181 -200 656 -680 861 -869 1191 -1099 2431 -1920 3380 -2236 465 -155 775 -172 1183 -64 498 131 1134 514 1597 961 389 375 567 708 515 963 -26 131 -128 299 -284 470 -502 551 -1787 1395 -2352 1546 -52 14 -112 22 -174 22 -175 2 -306 -58 -444 -204 -106 -111 -183 -242 -308 -523 -102 -229 -169 -368 -193 -400 -13 -17 -16 -17 -67 0 -81 26 -338 160 -483 251 -364 227 -822 579 -1170 900 -528 485 -1243 1453 -1405 1901 -22 61 -22 63 -4 77 32 23 188 99 384 185 317 139 450 221 572 348 159 167 208 358 149 582 -141 538 -890 1700 -1465 2275 -163 163 -275 249 -401 310 -144 69 -245 81 -385 44z m200 -606 c72 -48 280 -257 410 -412 438 -523 935 -1316 1062 -1695 l30 -91 -33 -28 c-62 -52 -169 -108 -427 -223 -307 -137 -418 -201 -524 -302 -63 -60 -87 -92 -121 -160 -40 -81 -42 -90 -45 -192 -4 -90 0 -121 21 -201 121 -451 670 -1266 1346 -1997 172 -186 519 -493 822 -729 634 -492 1161 -790 1476 -834 161 -23 310 29 433 150 113 112 172 212 316 539 111 251 172 369 221 423 l34 38 52 -15 c91 -27 317 -131 487 -225 408 -226 886 -552 1230 -839 154 -129 382 -355 434 -432 l38 -57 -37 -67 c-53 -97 -113 -173 -250 -313 -391 -401 -953 -755 -1398 -880 -283 -79 -503 -66 -862 54 -813 270 -1878 964 -2980 1939 -371 329 -982 958 -1340 1381 -1023 1207 -1726 2453 -1772 3140 -14 216 56 481 208 791 208 423 563 885 867 1129 100 81 202 144 232 145 8 0 40 -17 70 -37z"></path>
  </g>
</symbol>

<symbol id='pfy-iconset-mobile'>
<g transform="translate(-300,1100) scale(0.09,-0.09)" fill="currentColor" stroke="none">
<path d="M7479 11630 c-218 -34 -394 -184 -470 -400 -22 -62 -24 -81 -27 -412 l-4 -347 -1256 -3 -1257 -3 -95 -27 c-209 -58 -393 -163 -532 -305 -109 -109 -161 -181 -223 -308 -63 -127 -98 -243 -114 -370 -8 -64 -11 -1115 -11 -3645 0 -3896 -4 -3645 59 -3841 58 -179 148 -326 281 -459 198 -198 443 -314 725 -341 74 -7 702 -9 1925 -6 1623 3 1822 5 1886 19 435 99 761 392 889 798 58 186 55 -39 55 3830 0 2530 -3 3581 -11 3645 -6 50 -22 128 -35 175 -30 104 -118 284 -179 365 -110 147 -283 290 -437 364 -134 63 -323 111 -443 111 l-53 0 -5 338 c-4 367 -8 396 -66 510 -113 219 -362 349 -602 312z m669 -3482 l-3 -1163 -1745 0 -1745 0 -3 1163 -2 1162 1750 0 1750 0 -2 -1162z m-2330 -2910 l-3 -583 -580 0 -580 0 -3 570 c-1 314 0 576 3 583 3 9 130 12 585 12 l580 0 -2 -582z m2327 -3 l0 -580 -580 0 -580 0 -3 583 -2 582 582 -2 583 -3 0 -580z m-2325 -2325 l0 -580 -585 0 -585 0 0 580 0 580 585 0 585 0 0 -580z m2330 0 l0 -580 -585 0 -585 0 0 580 0 580 585 0 585 0 0 -580z"></path>
</g>
</symbol>

<symbol id='pfy-iconset-geo'>
<g transform="translate(0,250) scale(45)" fill="none" fill-rule="evenodd" stroke="currentColor" stroke-linecap="round" stroke-linejoin="round">
  <path d="m8 16c4.4380025 0 8-3.5262833 8-7.96428571 0-4.43800246-3.5619975-8.03571429-8-8.03571429-4.43800245 0-8 3.59771183-8 8.03571429 0 4.43800241 3.56199755 7.96428571 8 7.96428571z"></path>
  <path d="m1 5h14"></path>
  <path d="m1 11h14"></path>
  <path d="m8 16c2.2190012 0 4-3.5262833 4-7.96428571 0-4.43800246-1.7809988-8.03571429-4-8.03571429-2.21900123 0-4 3.59771183-4 8.03571429 0 4.43800241 1.78099877 7.96428571 4 7.96428571z"></path>
</g>
</symbol>

<symbol id='pfy-iconset-sms'>
<g fill="currentColor" transform="translate(0,200) scale(1.6,1.6)">
<path d="M401.808,32.664H110.192C49.44,32.664,0,83.176,0,145.256v111.536c0,62.08,49.44,112.592,110.192,112.592h184.336 l134,109.952V365.992C476.992,353.64,512,309.016,512,256.776v-111.52C512,83.176,462.56,32.664,401.808,32.664z M480.016,256.776 H480c0,40.976-29.808,75.376-69.36,80.032l-14.128,1.664v73.184l-90.56-74.304h-195.76C67.072,337.384,32,301.224,32,256.776 v-111.52c0-44.432,35.072-80.592,78.192-80.592h291.632c43.104,0,78.192,36.16,78.192,80.592V256.776z"></path>
<path d="M134.016,186.12c-12.24-4.288-16.112-6.736-16.112-11.424c0-5.088,4.288-8.16,11.824-8.16 c8.56,0,17.12,3.264,21.616,5.712l5.504-21.408c-6.112-3.04-16.512-5.68-28.144-5.68c-24.656,0-40.56,14.064-40.56,32.608 c-0.208,11.824,7.744,23.024,28.336,29.968c11.616,3.872,14.672,6.32,14.672,11.424c0,5.088-3.872,8.352-13.248,8.352 c-9.168,0-20.992-4.08-26.704-7.552l-5.504,22.224c7.536,4.08,19.152,6.928,32.208,6.928c28.544,0,43.216-13.664,43.216-32.208 C160.928,202.232,152.976,192.648,134.016,186.12z"></path>
<path d="M296.88,145.16c-7.344,0-13.456,1.632-18.976,4.896c-4.688,2.848-9.168,6.928-12.848,12.016h-0.4 c-4.288-10.384-14.464-16.912-27.312-16.912c-17.12,0-25.888,9.376-30.176,15.68h-0.608l-1.424-13.456H179.04 c0.4,8.768,0.816,19.376,0.816,31.792v67.888h30.176v-58.096c0-2.448,0.208-5.312,1.216-7.744 c1.824-5.088,6.528-11.216,14.464-11.216c9.792,0,14.288,8.56,14.288,21.2v55.856h30.176V188.76c0-2.448,0.4-5.712,1.216-7.952 c2.032-5.92,7.136-10.816,14.272-10.816c9.984,0,14.688,8.352,14.688,22.848v54.224h30.176v-58.72 C330.512,158.616,316.032,145.16,296.88,145.16z"></path>
<path d="M397.744,186.12c-12.24-4.288-16.112-6.736-16.112-11.424c0-5.088,4.288-8.16,11.824-8.16 c8.56,0,17.12,3.264,21.616,5.712l5.504-21.408c-6.128-3.056-16.512-5.696-28.144-5.696c-24.656,0-40.56,14.064-40.56,32.608 c-0.208,11.824,7.744,23.024,28.336,29.968c11.616,3.872,14.672,6.32,14.672,11.424c0,5.088-3.872,8.352-13.248,8.352 c-9.168,0-20.992-4.08-26.704-7.552l-5.504,22.224c7.536,4.08,19.152,6.928,32.208,6.928c28.544,0,43.216-13.664,43.216-32.208 C424.656,202.232,416.704,192.648,397.744,186.12z"></path>
</g>
</symbol>

<symbol id='pfy-iconset-zip' fill="none">
<g transform="translate(0,0) scale(42)">
<path d="M4 4C4 3.44772 4.44772 3 5 3H14H14.5858C14.851 3 15.1054 3.10536 15.2929 3.29289L19.7071 7.70711C19.8946 7.89464 20 8.149 20 8.41421V20C20 20.5523 19.5523 21 19 21H5C4.44772 21 4 20.5523 4 20V4Z" stroke="currentColor" stroke-width="1" stroke-linecap="round"/>
<path d="M20 8H15V3" stroke="currentColor" stroke-width="1" stroke-linecap="round" stroke-linejoin="round"/>
<path d="M7 13H9.5L7 17H9.5" stroke="currentColor" stroke-width="1" stroke-linecap="round" stroke-linejoin="round"/>
<path d="M12 13V17" stroke="currentColor" stroke-width="1" stroke-linecap="round" stroke-linejoin="round"/>
<path d="M15 17L15 15.5M15 15.5L15 13L15.75 13C16.4404 13 17 13.5596 17 14.25V14.25C17 14.9404 16.4404 15.5 15.75 15.5H15Z" stroke="currentColor" stroke-width="1" stroke-linecap="round" stroke-linejoin="round"/>
</g>
</symbol>

<symbol id='pfy-iconset-doc' fill="currentColor">
<g transform="translate(0,-90) scale(32)">
<path d="M4 4C4 3.44772 4.44772 3 5 3H14H14.5858C14.851 3 15.1054 3.10536 15.2929 3.29289L19.7071 7.70711C19.8946 7.89464 20 8.149 20 8.41421V20C20 20.5523 19.5523 21 19 21H5C4.44772 21 4 20.5523 4 20V4Z" stroke="currentColor" stroke-width="1" stroke-linecap="round"/>
<path d="M20 8H15V3" stroke="currentColor" stroke-width="1" stroke-linecap="round" stroke-linejoin="round"/>
</g>
</symbol>

<symbol id='pfy-iconset-download' fill="currentColor">
<g transform="translate(0,270) scale(45)" fill="none" fill-rule="evenodd" stroke="currentColor" stroke-linecap="round" stroke-linejoin="round">
<path d="m6.5 10.5h-4c-1.15200478-.4188699-2-1.70322102-2-3 0-1.65685425 1.34314575-3 3-3 .03335948 0 .06659179.00054449.09968852.00162508.46264217-2.28304993 2.48077946-4.00162508 4.90031148-4.00162508 2.7614237 0 5 2.23857625 5 5 0 .48543539-.0691781.95471338-.1982137 1.39851335.3339576-.25026476.748773-.39851335 1.1982137-.39851335 1.1045695 0 2 .8954305 2 2s-.8954305 2-2 2h-4"></path>
<path d="m6.5 12.5 2 2 2-2"></path>
<path d="m8.5 4.5v10"></path>
</g>
</symbol>

</svg>
