<svg version="1.1" id="Layer_1" xmlns="http://www.w3.org/2000/svg" xmlns:xlink="http://www.w3.org/1999/xlink" x="0px" y="0px"
	 viewBox="0 0 485 485" xml:space="preserve">
<g fill="currentColor" fill-rule="evenodd" >
	<path d="M120.89,400c81.071,0,162.193,0,243.264,0c1.385,0,2.769-0.102,4.166-0.254c17.807-2.083,31.651-17.667,31.651-35.576
		c0-81.071,0-162.18,0-243.251c0-1.042,0.051-2.083-0.102-3.124C397.938,99.035,382.405,85,363.505,85
		c-80.626,0-161.252,0-241.917,0.051c-2.185,0-4.42,0.139-6.554,0.546c-17.857,3.417-30.012,18.201-30.012,36.363v120.61
		c0,40.085,0,80.22,0,120.317c0,2.032,0.152,4.115,0.445,6.147C87.803,386.448,103.286,400,120.89,400z M303.125,133.468
		c0.051-6.948,5.411-12.053,12.396-12.104c11.964,0,23.865,0,35.83,0c7.087,0.051,12.345,5.258,12.345,12.409
		c0.051,11.901,0.051,23.853,0,35.767c0,7.189-5.258,12.409-12.447,12.409h-17.858c-5.957,0-11.964,0-17.959,0
		c-6.897,0-12.256-5.169-12.307-12.066C303.074,157.727,303.074,145.623,303.125,133.468z M242.49,181.948
		c33.493,0,60.584,27.028,60.635,60.521c0,33.493-27.041,60.584-60.534,60.635c-33.531,0-60.673-27.143-60.622-60.686
		C182.02,209.077,209.111,181.948,242.49,181.948z M121.385,219.797v-1.384h27.345c-6.109,24.653-3.328,48.264,8.777,70.592
		c8.827,16.321,21.477,28.971,37.608,38.104c31.905,18.01,71.596,16.27,101.951-4.458c16.829-11.52,28.933-26.85,36.173-45.952
		c7.188-19.052,8.091-38.498,3.074-58.336h27.383c0,0.546,0,1.042,0,1.588v130.529c0,8.192-4.954,13.197-13.146,13.197H148.679
		c-4.865,0-9.678,0.051-14.543,0c-7.583,0-12.752-5.156-12.752-12.752C121.385,307.218,121.385,263.501,121.385,219.797z"/>
</g>
</svg>