<?xml version="1.0" encoding="UTF-8"?>
<svg xmlns="http://www.w3.org/2000/svg" version="1.0" width="1em" viewBox="0 0 545 545" preserveAspectRatio="xMidYMid meet">
  <g transform="translate(30,545) scale(0.08,-0.08)" fill="currentColor" stroke="none">
    <path d="M2073 5179 c-16 -4 -39 -9 -53 -13 -14 -3 -39 -18 -55 -34 -17 -16 -42 -32 -57 -36 -16 -3 -28 -13 -28 -21 0 -8 -10 -20 -22 -26 -25 -13 -58 -47 -58 -59 0 -4 -13 -13 -30 -20 -16 -7 -30 -16 -30 -19 0 -9 -26 -35 -95 -96 -31 -27 -79 -71 -106 -97 -27 -27 -54 -48 -59 -48 -6 0 -10 -7 -10 -15 0 -8 -4 -15 -10 -15 -5 0 -31 -21 -58 -47 -27 -27 -88 -84 -137 -128 -48 -44 -104 -96 -124 -116 -20 -20 -46 -41 -58 -48 -13 -6 -23 -18 -23 -26 0 -8 -4 -15 -8 -15 -8 0 -40 -28 -152 -134 -26 -24 -58 -51 -74 -61 -27 -18 -27 -18 -54 11 -15 17 -42 49 -60 72 -19 23 -39 42 -46 42 -7 0 -20 16 -29 36 -10 20 -27 38 -37 41 -11 3 -20 9 -20 14 0 8 -38 51 -137 154 -29 30 -53 59 -53 64 0 10 -67 53 -87 57 -7 1 -20 9 -29 18 -16 16 -27 16 -116 0 -25 -5 -44 -19 -114 -83 -45 -41 -39 -198 10 -247 12 -12 54 -57 94 -100 40 -43 77 -83 83 -89 11 -11 30 -32 114 -123 33 -36 71 -78 85 -94 14 -15 37 -42 52 -58 l28 -31 -33 -32 c-50 -51 -63 -71 -59 -90 2 -10 -2 -24 -8 -32 -16 -19 -16 -135 -1 -144 6 -4 9 -15 6 -23 -4 -9 -2 -19 4 -23 6 -3 11 -18 11 -32 0 -15 3 -24 6 -20 3 3 19 -9 35 -26 16 -18 34 -36 40 -42 5 -5 18 -19 27 -29 9 -11 31 -34 47 -52 17 -18 57 -63 90 -99 33 -37 77 -86 98 -109 21 -22 41 -44 45 -49 4 -4 18 -18 32 -31 14 -14 41 -43 60 -66 19 -23 44 -49 54 -58 10 -9 26 -25 35 -36 9 -10 31 -34 49 -54 17 -19 32 -39 32 -43 0 -5 7 -9 15 -9 8 0 15 -4 15 -9 0 -8 41 -55 122 -139 13 -13 37 -38 53 -56 17 -19 69 -76 117 -127 48 -52 104 -114 125 -138 21 -24 65 -72 98 -106 73 -76 230 -245 279 -301 19 -22 56 -63 81 -89 25 -27 45 -52 45 -57 0 -4 7 -8 15 -8 8 0 15 -5 15 -11 0 -6 19 -30 43 -53 23 -23 78 -82 122 -131 44 -48 96 -104 116 -124 19 -20 43 -48 52 -63 10 -16 24 -28 32 -28 8 0 15 -4 15 -9 0 -9 18 -30 140 -159 28 -28 50 -57 50 -62 0 -6 6 -10 13 -10 6 0 23 -16 37 -36 13 -20 34 -43 47 -51 12 -8 31 -30 42 -49 11 -19 27 -34 36 -34 8 0 15 -4 15 -10 0 -5 20 -31 45 -57 24 -26 66 -72 92 -100 27 -29 67 -72 91 -97 23 -24 42 -48 42 -54 0 -5 9 -12 20 -15 10 -3 27 -21 37 -41 10 -21 27 -39 40 -42 12 -3 25 -14 28 -24 7 -23 40 -60 53 -60 6 0 14 -9 17 -20 3 -11 10 -20 15 -20 5 0 16 -12 24 -27 8 -16 15 -23 16 -18 0 13 48 -43 55 -65 3 -10 16 -21 29 -24 14 -3 29 -19 36 -36 7 -16 16 -30 20 -30 4 0 21 -13 38 -29 16 -16 33 -27 36 -24 3 4 6 2 6 -4 0 -16 55 -25 152 -25 86 0 126 12 166 49 7 7 18 13 24 13 6 0 9 3 5 6 -7 7 27 42 66 67 15 9 27 24 27 32 0 8 4 15 9 15 12 0 126 102 287 257 41 40 83 75 94 78 10 3 20 14 23 25 3 11 19 28 36 37 17 10 35 27 41 38 6 11 29 31 51 45 21 13 39 29 39 36 0 6 18 24 39 38 22 15 48 39 58 53 10 13 30 31 45 39 15 7 29 22 33 33 3 10 19 24 36 31 16 7 37 26 45 41 8 16 18 29 23 29 5 0 35 25 67 55 32 30 62 55 66 55 5 0 8 6 8 13 0 7 18 24 40 37 22 14 40 29 40 33 0 12 50 56 71 62 11 4 19 13 19 21 0 8 15 24 33 34 19 11 40 31 47 45 7 14 18 25 23 25 17 0 137 132 137 151 0 10 4 20 9 23 4 3 8 16 7 28 -1 13 1 35 5 50 4 15 4 30 -1 33 -4 3 -6 14 -3 24 12 46 -28 121 -107 204 -77 81 -115 122 -188 204 -20 22 -43 47 -50 55 -8 7 -23 24 -35 37 -12 13 -44 47 -72 76 -27 29 -67 73 -88 97 -45 50 -50 55 -79 87 -13 13 -52 55 -88 94 -36 38 -90 96 -120 129 -30 32 -68 73 -85 92 -16 18 -73 80 -126 137 -53 57 -109 119 -125 137 -16 17 -64 69 -106 113 -43 45 -78 86 -78 90 0 5 -7 9 -15 9 -8 0 -15 4 -15 10 0 5 -31 42 -68 82 -38 40 -101 109 -142 153 -41 44 -81 87 -89 97 -9 9 -25 28 -36 42 -11 14 -26 25 -32 26 -7 0 -13 5 -13 10 0 6 -21 34 -47 62 -27 28 -77 82 -113 121 -36 38 -85 90 -109 116 -24 25 -52 58 -63 74 -11 15 -26 27 -33 27 -8 0 -17 9 -20 20 -6 19 -41 58 -198 220 -24 25 -49 55 -55 67 -7 12 -20 24 -29 27 -10 4 -28 22 -41 41 -12 19 -28 35 -35 35 -6 0 -21 17 -32 38 -11 20 -29 41 -40 46 -11 5 -31 26 -45 47 -13 22 -28 39 -33 39 -10 0 -44 40 -64 74 -7 12 -12 17 -13 11 0 -13 -48 43 -55 65 -3 10 -17 21 -30 24 -13 3 -26 15 -30 25 -8 25 -40 61 -54 61 -6 0 -11 4 -11 9 0 6 -13 25 -30 43 -16 18 -30 29 -30 24 0 -5 -12 9 -26 30 -15 21 -41 51 -60 67 -18 15 -35 35 -38 45 -5 14 -78 54 -106 58 -3 0 -18 7 -33 14 -24 12 -30 12 -38 -1 -5 -8 -9 -9 -9 -4 0 11 -37 13 -77 4z m135 -319 c17 -11 32 -17 32 -14 0 5 42 -38 143 -147 37 -41 88 -97 115 -126 26 -28 79 -86 117 -128 39 -42 88 -95 110 -119 156 -165 202 -216 220 -239 11 -15 25 -27 32 -27 7 0 13 -5 13 -10 0 -6 17 -29 38 -51 66 -74 130 -142 206 -222 42 -43 78 -88 82 -99 3 -11 8 -17 11 -15 8 8 43 -25 59 -55 8 -16 21 -28 29 -28 8 0 15 -4 15 -10 0 -5 19 -29 43 -54 101 -108 105 -113 117 -182 6 -40 5 -43 -49 -98 -105 -107 -233 -225 -251 -231 -10 -3 -20 -14 -23 -25 -3 -11 -21 -29 -41 -40 -19 -12 -38 -30 -41 -40 -3 -11 -14 -22 -24 -25 -25 -8 -61 -40 -61 -54 0 -6 -11 -17 -25 -23 -14 -6 -25 -15 -25 -19 0 -4 -9 -10 -20 -14 -11 -3 -19 -10 -17 -14 2 -9 -52 -61 -65 -61 -4 0 -13 -11 -20 -24 -6 -14 -24 -30 -39 -37 -17 -6 -32 -22 -35 -35 -3 -13 -15 -26 -27 -30 -11 -3 -37 -23 -57 -43 -21 -20 -49 -45 -62 -56 -14 -11 -24 -23 -22 -27 3 -4 -5 -12 -18 -19 -24 -13 -43 -27 -61 -47 -20 -22 -55 -55 -97 -92 -70 -62 -75 -67 -90 -83 -8 -9 -41 -40 -74 -69 -32 -29 -74 -68 -92 -85 -18 -18 -40 -33 -49 -33 -8 0 -15 -4 -15 -9 0 -30 -123 -16 -148 17 -13 18 -112 126 -199 218 -29 31 -53 60 -53 65 0 6 -4 7 -10 4 -5 -3 -10 -2 -10 4 0 9 -26 38 -160 177 -22 23 -40 47 -40 53 0 6 -7 11 -15 11 -8 0 -15 4 -15 9 0 4 -22 32 -50 62 -27 30 -87 94 -132 144 -46 49 -102 108 -125 132 -24 24 -43 47 -43 53 0 5 -7 10 -15 10 -8 0 -15 4 -15 9 0 5 -15 25 -33 44 -73 80 -224 243 -257 278 -63 67 -88 95 -125 144 -34 44 -36 50 -30 97 4 27 14 54 22 61 8 7 32 28 53 47 21 19 66 60 100 90 34 30 82 74 106 98 25 23 49 42 54 42 6 0 10 7 10 15 0 8 9 19 21 25 11 6 37 28 57 48 21 20 77 73 125 117 48 44 110 101 138 128 27 26 54 47 59 47 6 0 10 7 10 15 0 8 4 15 8 15 5 0 29 19 53 43 25 23 92 85 149 137 57 52 111 103 119 113 9 10 31 27 49 38 17 12 32 27 32 35 0 8 4 14 9 14 9 0 47 34 151 134 45 44 106 86 125 86 6 0 25 -9 43 -20z m1600 -1733 c6 3 12 0 12 -6 0 -6 6 -11 13 -11 8 0 25 -12 40 -27 14 -16 49 -54 79 -85 29 -32 70 -76 91 -98 21 -23 35 -45 32 -50 -3 -5 3 -14 14 -19 16 -9 18 -16 11 -42 -5 -18 -7 -35 -5 -40 3 -4 1 -10 -5 -14 -5 -3 -10 -14 -10 -24 0 -10 -15 -26 -35 -37 -19 -10 -35 -23 -35 -29 0 -6 -10 -18 -22 -27 -13 -10 -54 -46 -93 -82 -38 -36 -76 -66 -82 -66 -7 0 -13 -3 -13 -8 0 -13 -83 -10 -98 4 -7 8 -20 14 -28 14 -8 0 -14 4 -14 8 0 5 -21 31 -47 59 -27 28 -81 85 -120 127 -70 75 -72 79 -71 124 3 52 3 52 70 120 73 75 126 122 135 122 5 0 17 14 27 30 11 19 29 33 46 37 16 3 31 11 34 19 3 9 13 11 33 5 15 -4 34 -6 41 -4z m-528 -516 c0 -6 65 -83 90 -106 51 -47 110 -115 110 -127 0 -6 3 -9 6 -6 3 3 16 -5 29 -18 29 -29 41 -117 19 -135 -8 -6 -14 -17 -14 -24 0 -7 -10 -19 -23 -28 -12 -8 -54 -44 -92 -81 -38 -36 -73 -66 -77 -66 -4 0 -8 -6 -8 -13 0 -7 -16 -21 -35 -31 -19 -11 -35 -24 -35 -29 0 -5 -15 -7 -34 -4 -22 4 -36 1 -39 -6 -3 -7 -20 3 -42 26 -20 20 -41 37 -45 37 -4 0 -13 14 -20 30 -7 17 -18 30 -26 30 -7 0 -21 11 -31 25 -10 14 -46 55 -80 92 -59 63 -63 70 -63 115 0 30 4 48 12 48 6 0 9 3 5 6 -6 6 7 25 32 47 46 41 104 95 161 148 36 34 74 65 85 69 25 10 115 11 115 1z m1020 -29 c0 -5 18 -14 40 -21 22 -6 40 -16 40 -21 0 -5 20 -31 45 -57 25 -25 45 -50 45 -55 0 -4 7 -8 15 -8 8 0 15 -4 15 -9 0 -5 20 -30 45 -55 25 -26 45 -54 45 -61 0 -8 5 -17 10 -20 6 -3 10 -26 10 -51 0 -24 -4 -44 -10 -44 -5 0 -10 -6 -10 -12 0 -7 -32 -42 -72 -78 -39 -36 -90 -82 -112 -103 -23 -21 -50 -46 -61 -56 -24 -22 -103 -43 -111 -30 -3 5 -12 9 -20 9 -18 0 -36 16 -53 48 -6 12 -17 22 -24 22 -7 0 -19 10 -27 22 -8 13 -29 36 -46 53 -16 16 -38 42 -47 57 -9 14 -25 29 -37 33 -12 4 -23 21 -30 45 -6 21 -15 40 -20 42 -14 4 8 68 30 88 9 8 19 23 23 32 3 9 19 25 34 35 15 10 44 34 64 53 20 19 41 40 47 45 6 6 20 19 31 30 36 36 64 53 99 61 8 1 16 5 20 8 8 9 22 7 22 -2z m-1587 -483 c33 -18 250 -251 271 -291 10 -19 13 -59 7 -90 -2 -14 -118 -128 -130 -128 -7 0 -10 -4 -6 -9 3 -6 -15 -24 -40 -41 -25 -17 -45 -36 -45 -43 0 -15 -52 -48 -100 -63 -31 -10 -41 -9 -83 14 -26 14 -59 41 -74 61 -15 20 -43 52 -62 73 -77 78 -91 94 -117 133 -25 38 -26 41 -14 92 7 29 16 53 20 53 3 0 44 36 90 80 46 45 95 88 110 96 14 9 30 26 36 37 13 32 96 47 137 26z m1132 -106 c42 -42 79 -83 83 -90 5 -7 33 -39 65 -71 31 -32 60 -69 65 -82 12 -31 -14 -97 -50 -130 -15 -14 -61 -56 -104 -95 -43 -38 -92 -85 -110 -102 -23 -23 -42 -33 -66 -34 -55 -1 -97 12 -103 31 -3 10 -28 40 -55 66 -28 27 -53 56 -56 66 -3 10 -9 17 -14 15 -10 -3 -48 40 -55 64 -4 10 -17 22 -31 25 -24 6 -36 31 -36 76 -1 29 23 91 39 101 6 4 29 24 51 45 22 20 65 61 95 90 31 28 61 52 66 52 6 0 11 7 11 15 0 8 10 17 23 20 28 6 67 12 89 14 10 0 51 -34 93 -76z m974 26 c36 -8 56 -22 100 -71 31 -33 84 -90 119 -126 34 -36 62 -72 62 -79 0 -7 4 -13 9 -13 13 0 19 -83 7 -99 -16 -20 -95 -97 -177 -171 -39 -36 -80 -73 -91 -83 -25 -24 -82 -41 -86 -27 -3 8 -8 8 -17 0 -9 -7 -19 -3 -39 15 -15 14 -31 25 -35 25 -5 0 -14 14 -21 30 -7 17 -18 30 -24 30 -6 1 -19 11 -28 23 -10 12 -29 36 -43 52 -14 17 -25 34 -25 39 0 5 -3 7 -6 4 -8 -9 -36 21 -67 74 -25 44 -26 48 -12 81 8 20 27 47 42 60 16 14 60 56 98 93 39 36 86 78 105 93 19 14 41 34 48 43 15 21 21 21 81 7z m-1617 -456 c2 -5 22 -21 45 -37 23 -15 49 -38 56 -50 8 -12 35 -43 61 -69 25 -26 46 -52 46 -58 0 -6 4 -8 8 -5 4 2 17 -7 27 -20 11 -14 30 -37 43 -52 15 -16 21 -34 18 -47 -3 -11 -6 -31 -6 -45 0 -26 -23 -52 -134 -152 -32 -29 -75 -69 -95 -89 -52 -52 -131 -87 -131 -59 0 6 -9 10 -19 10 -11 0 -23 5 -26 10 -3 6 -14 10 -23 10 -10 0 -26 16 -36 35 -11 19 -25 35 -32 35 -7 0 -17 7 -21 15 -5 8 -36 45 -70 82 -34 37 -63 73 -64 78 0 6 -5 16 -11 22 -6 7 -11 32 -13 55 -2 38 2 47 36 80 22 21 39 42 39 48 0 5 4 10 9 10 6 0 30 19 55 43 25 23 68 63 96 90 29 26 61 47 73 47 12 0 29 5 37 10 18 12 27 12 32 3z m1105 -69 c20 -27 172 -192 211 -228 35 -32 57 -93 47 -129 -6 -19 -125 -142 -197 -203 -14 -12 -27 -26 -29 -30 -2 -5 -22 -22 -43 -38 -32 -24 -49 -30 -90 -29 -32 0 -52 6 -55 14 -4 12 -36 49 -101 115 -14 14 -29 30 -35 36 -15 15 -78 85 -95 105 -50 59 -39 130 27 180 33 25 67 57 211 195 40 38 45 40 89 35 29 -3 52 -12 60 -23z m-574 -499 c20 -8 42 -25 48 -37 6 -12 24 -32 40 -45 15 -13 31 -33 34 -43 4 -11 12 -20 18 -20 7 0 21 -11 32 -25 11 -14 39 -46 61 -71 65 -71 64 -148 -2 -193 -19 -13 -34 -30 -34 -37 0 -8 -5 -14 -11 -14 -6 0 -34 -22 -62 -49 -109 -104 -142 -131 -157 -132 -8 0 -26 -3 -40 -5 -15 -2 -36 3 -49 13 -53 41 -114 100 -126 123 -7 14 -25 32 -38 39 -14 8 -31 27 -38 42 -6 16 -18 29 -25 29 -8 0 -19 12 -25 28 -7 15 -16 36 -21 47 -22 48 13 102 120 188 19 15 31 27 27 27 -4 0 13 16 36 36 24 20 50 44 59 53 22 24 82 61 101 61 9 0 33 -7 52 -15z"></path>
  </g>
</svg>
