<svg version="1.0" xmlns="http://www.w3.org/2000/svg"
 width="512pt" height="512pt" viewBox="0 0 512 512"
 preserveAspectRatio="xMidYMid meet">

<g transform="translate(0,512) scale(0.1,-0.1)"
fill="currentColor" stroke="none">
<path d="M1017 4800 c-47 -14 -98 -60 -121 -109 l-21 -46 0 -2085 0 -2085 25
-50 c16 -32 41 -61 68 -80 l44 -30 1548 0 1548 0 44 30 c27 19 52 48 68 80
l25 50 0 1685 0 1685 -22 40 c-12 22 -215 233 -455 472 -367 366 -439 433
-473 442 -49 13 -2235 14 -2278 1z m2233 -475 c5 -401 5 -400 54 -453 51 -57
50 -57 459 -60 l377 -3 0 -1015 0 -1014 -1580 0 -1580 0 0 1433 c0 1342 2
1433 18 1453 9 12 26 26 37 32 14 8 332 11 1115 9 l1095 -2 5 -380z m810 -408
c0 -4 -149 -7 -331 -5 l-331 3 -24 28 -24 28 0 332 0 332 355 -355 c195 -195
355 -359 355 -363z m80 -2839 c0 -556 -2 -605 -18 -624 -9 -12 -27 -27 -39
-33 -31 -16 -3015 -16 -3046 0 -12 6 -30 21 -39 33 -16 19 -18 68 -18 624 l0
602 1580 0 1580 0 0 -602z"/>
<path d="M2400 3999 c-51 -21 -100 -81 -120 -147 -42 -137 -14 -296 90 -505
l48 -98 -58 -132 c-32 -73 -79 -170 -103 -216 l-44 -84 -163 -78 c-186 -90
-261 -140 -347 -232 -71 -76 -103 -149 -102 -230 1 -72 20 -118 59 -144 95
-65 224 14 399 246 47 64 118 169 156 235 48 81 77 121 94 128 53 20 247 70
344 89 l101 20 26 -21 c156 -127 307 -214 425 -245 142 -37 256 -10 294 69 51
104 12 204 -102 262 -97 50 -152 57 -394 51 l-222 -5 -93 105 c-51 57 -108
126 -126 151 l-32 47 35 104 c79 236 102 448 59 542 -29 63 -73 92 -143 96
-31 2 -67 -2 -81 -8z m114 -104 c46 -46 44 -179 -4 -363 -41 -157 -43 -159
-75 -90 -86 189 -96 381 -23 443 33 28 79 33 102 10z m41 -826 c100 -119 108
-129 104 -132 -9 -7 -294 -75 -298 -71 -3 2 16 48 42 102 25 53 53 114 61 135
8 20 19 37 23 37 5 0 36 -32 68 -71z m720 -212 c102 -28 145 -64 145 -124 0
-91 -152 -85 -340 13 -47 25 -107 62 -135 82 l-50 37 50 7 c74 9 272 0 330
-15z m-1156 -209 c-20 -38 -129 -199 -174 -258 -55 -72 -135 -145 -180 -167
-36 -17 -37 -17 -51 2 -18 24 -18 86 0 128 19 46 99 131 171 183 51 36 228
134 242 134 2 0 -2 -10 -8 -22z"/>
<path d="M1709 1413 c-11 -13 -14 -86 -14 -375 0 -344 1 -360 19 -374 25 -18
37 -18 62 0 17 13 19 29 22 140 l4 126 106 0 c126 0 166 17 217 88 29 43 30
46 30 162 0 115 -1 119 -30 162 -18 25 -49 52 -75 66 -40 20 -59 22 -186 22
-119 0 -144 -3 -155 -17z m306 -99 c31 -20 45 -63 45 -136 0 -67 -19 -122 -48
-137 -12 -6 -64 -11 -116 -11 l-96 0 0 150 0 150 95 0 c70 0 102 -4 120 -16z"/>
<path d="M2336 1408 c-14 -20 -16 -67 -16 -370 0 -430 -19 -391 185 -386 141
3 144 3 187 34 26 19 53 50 68 80 24 48 25 54 25 274 0 220 -1 226 -25 275
-16 32 -41 61 -68 80 -43 30 -46 30 -192 33 -145 3 -148 3 -164 -20z m287 -89
c55 -28 57 -37 57 -272 0 -292 -5 -301 -171 -295 l-84 3 -3 288 -2 287 91 0
c49 0 100 -5 112 -11z"/>
<path d="M2976 1408 c-14 -19 -16 -72 -16 -370 0 -335 1 -349 20 -368 23 -23
39 -25 63 -7 14 10 17 36 19 167 l3 155 100 3 c104 3 135 15 135 52 0 37 -31
49 -135 52 l-100 3 -3 118 -3 117 161 0 c92 0 170 4 181 10 22 12 26 59 7 78
-9 9 -70 12 -214 12 -198 0 -203 -1 -218 -22z"/>
</g>
</svg>
