<svg xmlns="http://www.w3.org/2000/svg" version="1.0" width="1em" viewBox="0 0 980 980" preserveAspectRatio="xMidYMid meet">
  <g transform="translate(0,980) scale(0.08,-0.08)" fill="currentColor" stroke="none">
    <path d="M1760 9779 c-246 -64 -542 -285 -853 -639 -454 -517 -790 -1149 -882 -1659 -52 -287 -17 -606 110 -986 303 -909 1083 -2108 2119 -3255 181 -200 656 -680 861 -869 1191 -1099 2431 -1920 3380 -2236 465 -155 775 -172 1183 -64 498 131 1134 514 1597 961 389 375 567 708 515 963 -26 131 -128 299 -284 470 -502 551 -1787 1395 -2352 1546 -52 14 -112 22 -174 22 -175 2 -306 -58 -444 -204 -106 -111 -183 -242 -308 -523 -102 -229 -169 -368 -193 -400 -13 -17 -16 -17 -67 0 -81 26 -338 160 -483 251 -364 227 -822 579 -1170 900 -528 485 -1243 1453 -1405 1901 -22 61 -22 63 -4 77 32 23 188 99 384 185 317 139 450 221 572 348 159 167 208 358 149 582 -141 538 -890 1700 -1465 2275 -163 163 -275 249 -401 310 -144 69 -245 81 -385 44z m200 -606 c72 -48 280 -257 410 -412 438 -523 935 -1316 1062 -1695 l30 -91 -33 -28 c-62 -52 -169 -108 -427 -223 -307 -137 -418 -201 -524 -302 -63 -60 -87 -92 -121 -160 -40 -81 -42 -90 -45 -192 -4 -90 0 -121 21 -201 121 -451 670 -1266 1346 -1997 172 -186 519 -493 822 -729 634 -492 1161 -790 1476 -834 161 -23 310 29 433 150 113 112 172 212 316 539 111 251 172 369 221 423 l34 38 52 -15 c91 -27 317 -131 487 -225 408 -226 886 -552 1230 -839 154 -129 382 -355 434 -432 l38 -57 -37 -67 c-53 -97 -113 -173 -250 -313 -391 -401 -953 -755 -1398 -880 -283 -79 -503 -66 -862 54 -813 270 -1878 964 -2980 1939 -371 329 -982 958 -1340 1381 -1023 1207 -1726 2453 -1772 3140 -14 216 56 481 208 791 208 423 563 885 867 1129 100 81 202 144 232 145 8 0 40 -17 70 -37z"></path>
  </g>
</svg>
