<svg version="1.1" xmlns="http://www.w3.org/2000/svg" xmlns:xlink="http://www.w3.org/1999/xlink" x="0px" y="0px"
	 viewBox="0 0 512 512" xml:space="preserve">
<g fill="currentColor" fill-rule="evenodd" >
<path d="M351.938,340.385h-95.711c-9.265,0-16.618-3.131-23.116-9.83c-6.646-6.885-9.742-14.717-9.742-24.646v-34.476h128.57
	c17.434,0,32.55-6.472,44.92-19.224c12.269-12.625,18.487-27.99,18.487-45.667c0-17.707-6.231-33.083-18.52-45.698
	c-12.418-12.757-27.567-19.226-45.031-19.226H223.38v-34.909c0-17.667-6.181-33.022-18.32-45.59
	c-12.274-12.826-27.332-19.329-44.755-19.329c-17.699,0-32.912,6.357-45.215,18.893c-12.233,12.462-18.437,27.961-18.437,46.065
	v199.209c0,44.973,15.701,83.971,46.662,115.906c31.077,32.08,69.08,48.348,112.955,48.348h95.678
	c17.42,0,32.532-6.471,44.903-19.219c12.264-12.605,18.48-27.978,18.48-45.685c0-17.683-6.215-33.05-18.451-45.647
	C384.51,346.871,369.389,340.385,351.938,340.385z M375.337,430.088c-6.703,6.906-14.135,10.123-23.388,10.123h-95.678
	c-35.942,0-65.842-12.828-91.411-39.224c-25.709-26.521-38.206-57.604-38.206-95.028v-199.21c0-10.107,3.22-18.301,9.846-25.051
	c6.635-6.759,14.198-9.908,23.806-9.908c9.171,0,16.505,3.2,23.129,10.122c6.691,6.928,9.945,15.039,9.945,24.797v64.909h158.416
	c9.314,0,16.794,3.226,23.537,10.154c6.737,6.918,10.014,15.02,10.014,24.77c0,9.734-3.272,17.834-10.013,24.771
	c-6.697,6.905-14.132,10.121-23.396,10.121h-158.57v64.475c0,17.701,6.11,33.004,18.185,45.51
	c12.208,12.586,27.238,18.969,44.674,18.969h95.711c9.264,0,16.693,3.22,23.401,10.154c6.817,7.021,9.993,14.891,9.993,24.77
	C385.335,415.066,382.067,423.168,375.337,430.088z"/>
</g>
</svg>